<?xml version="1.0" standalone="no"?>
<!DOCTYPE svg PUBLIC "-//W3C//DTD SVG 20010904//EN"
 "http://www.w3.org/TR/2001/REC-SVG-20010904/DTD/svg10.dtd">
<svg version="1.0" xmlns="http://www.w3.org/2000/svg"
 width="300.000000pt" height="300.000000pt" viewBox="0 0 300.000000 300.000000"
 preserveAspectRatio="xMidYMid meet">
<metadata>
Created by potrace 1.10, written by Peter Selinger 2001-2011
</metadata>
<g transform="translate(0.000000,300.000000) scale(0.100000,-0.100000)"
fill="#000000" stroke="none">
<path d="M0 1500 l0 -1500 1500 0 1500 0 0 275 c0 151 -2 275 -4 275 -2 0 -32
-31 -66 -70 l-61 -69 25 -68 c13 -37 31 -84 40 -104 14 -34 14 -38 -4 -54 -18
-16 -19 -15 -33 12 -7 15 -24 57 -37 93 -13 36 -25 67 -27 69 -2 3 -11 -6 -20
-20 -26 -37 -136 -150 -141 -144 -3 3 17 28 44 57 75 80 107 126 101 145 -2
10 -19 55 -35 100 -28 74 -30 84 -16 98 9 8 19 15 22 15 4 0 20 -38 36 -85 16
-47 32 -88 36 -90 4 -2 37 29 74 70 l66 73 0 1211 0 1211 -1500 0 -1500 0 0
-1500z m885 839 c72 -5 243 -14 380 -18 138 -5 262 -14 278 -20 55 -21 55 -45
3 -219 -26 -86 -52 -171 -57 -187 -11 -38 -65 -358 -75 -445 -6 -55 -12 -70
-40 -97 -38 -39 -68 -41 -216 -19 -51 8 -140 19 -198 25 -58 6 -160 22 -228
37 -67 16 -123 26 -125 23 -3 -2 -7 -54 -9 -116 -5 -108 -5 -112 13 -102 14 7
48 4 122 -10 226 -44 376 -71 455 -82 82 -12 83 -13 64 -32 -19 -19 -21 -19
-143 1 -68 12 -198 35 -289 52 -91 17 -179 33 -196 36 l-31 6 -6 -168 c-4 -92
-7 -240 -7 -329 0 -153 -1 -163 -21 -181 l-22 -19 6 360 c4 198 13 527 21 730
9 204 16 452 16 552 l0 181 31 26 c35 30 63 32 274 15z m1038 -261 c-13 -77
-20 -145 -15 -150 4 -4 25 -9 46 -11 l38 -2 20 70 c18 67 41 106 54 93 3 -4
-5 -45 -19 -93 l-25 -86 35 -14 c46 -19 49 -19 86 8 18 13 73 38 122 56 91 34
432 141 446 141 5 0 2 -12 -6 -27 -34 -64 -169 -460 -219 -642 -91 -329 -91
-328 -186 -936 -24 -157 -35 -204 -51 -220 -19 -19 -19 -19 -19 0 0 11 11 92
25 180 14 88 39 246 56 350 16 105 37 225 46 267 l16 76 -28 59 c-15 32 -49
123 -75 203 -26 80 -76 207 -110 282 -61 132 -64 137 -104 152 -23 9 -45 16
-48 16 -4 0 -15 -26 -24 -57 -16 -54 -47 -103 -58 -92 -3 2 7 37 21 78 14 42
21 77 16 82 -5 5 -23 11 -40 15 -37 7 -33 18 -68 -171 -15 -77 -46 -223 -71
-325 -25 -102 -55 -243 -69 -315 -29 -160 -88 -562 -83 -575 2 -5 42 41 90
103 95 124 134 164 145 153 5 -4 11 -92 14 -194 5 -161 4 -190 -10 -205 -15
-18 -16 -18 -22 0 -4 10 -8 91 -8 180 -1 89 -5 164 -9 167 -5 3 -51 -52 -104
-122 -86 -114 -96 -132 -102 -182 -7 -53 -19 -80 -37 -80 -15 0 0 180 37 435
38 256 59 370 123 640 49 210 104 495 97 502 -6 7 -98 24 -102 20 -2 -2 -11
-48 -20 -103 -15 -92 -34 -137 -50 -121 -4 4 0 53 9 109 10 57 17 106 17 111
0 4 -15 7 -34 7 -34 0 -35 -2 -42 -45 -6 -43 -36 -96 -48 -85 -3 3 -1 23 4 45
5 22 10 51 10 63 0 22 -3 23 -42 17 -38 -7 -41 -6 -29 9 7 9 31 21 52 26 34 9
39 15 39 39 0 29 33 81 44 70 3 -3 2 -27 -3 -52 l-8 -47 32 0 33 0 13 90 c11
82 29 123 46 106 4 -3 1 -47 -6 -97 -6 -51 -10 -93 -8 -96 2 -2 27 -6 55 -10
59 -7 53 -16 78 137 15 93 33 140 54 140 4 0 -4 -64 -17 -142z m-813 -1440
c-24 -167 -26 -174 -45 -182 -20 -7 -19 16 8 200 13 88 29 159 37 169 14 17
15 16 18 -13 2 -17 -6 -95 -18 -174z m315 166 c-16 -15 -42 -37 -57 -50 -44
-38 -38 -58 49 -157 18 -20 33 -45 33 -55 0 -26 -152 -163 -166 -149 -3 2 17
21 43 40 27 19 57 44 66 55 22 25 17 37 -48 113 -64 75 -61 93 23 168 37 33
72 61 77 60 6 0 -3 -11 -20 -25z m1209 -252 c42 -97 43 -109 13 -143 -30 -35
-177 -163 -181 -158 -2 2 -15 42 -28 89 -14 47 -32 100 -39 118 -10 24 -11 37
-3 50 15 24 187 143 195 134 4 -4 23 -44 43 -90z"/>
<path d="M660 2302 c0 -5 6 -12 13 -15 8 -3 24 -26 36 -52 12 -26 42 -66 67
-90 43 -42 56 -48 173 -82 12 -3 12 -7 -2 -20 -15 -15 -24 -16 -74 -5 -77 16
-127 52 -193 142 l-55 74 -6 -315 c-3 -173 -10 -351 -14 -396 l-8 -83 32 0
c17 0 77 -11 134 -24 96 -23 193 -37 347 -51 36 -4 103 -13 149 -22 76 -13 86
-13 96 0 6 9 21 87 33 174 31 217 52 316 108 495 48 154 56 200 37 219 -18 18
-126 29 -403 39 -151 6 -319 13 -372 17 -65 4 -98 2 -98 -5z m571 -723 c8 -15
14 -18 22 -10 17 17 31 13 17 -4 -12 -15 -11 -19 35 -81 7 -10 4 -19 -8 -31
-17 -17 -19 -16 -43 15 -30 38 -40 39 -73 10 -24 -22 -24 -21 2 11 25 30 26
35 12 51 -18 20 -19 32 -3 48 17 17 26 15 39 -9z"/>
<path d="M2514 2005 c-77 -23 -174 -55 -214 -71 l-73 -28 74 -12 c82 -13 230
-52 242 -63 4 -5 1 -14 -8 -21 -14 -11 -36 -8 -145 19 -207 52 -209 46 -37
-83 81 -60 147 -112 147 -116 0 -4 -6 -13 -14 -19 -17 -14 -25 -10 -161 91
-49 37 -91 65 -93 63 -7 -7 38 -83 80 -135 99 -122 129 -165 126 -185 -5 -35
-32 -26 -65 23 -41 60 -127 154 -117 127 4 -11 32 -92 61 -180 51 -153 70
-188 84 -162 4 7 23 71 42 142 43 157 65 225 151 464 37 101 66 184 64 186 -2
1 -66 -17 -144 -40z"/>
<path d="M2152 1878 c-17 -21 12 -48 30 -30 9 9 9 12 1 12 -6 0 -13 7 -15 17
-3 14 -4 14 -16 1z"/>
<path d="M2492 568 c-34 -22 -62 -44 -62 -49 0 -4 14 -41 30 -82 17 -42 30
-87 30 -101 0 -13 4 -28 10 -31 12 -8 118 82 125 106 3 10 -11 58 -32 108
l-39 90 -62 -41z"/>
</g>
</svg>
